<?xml version="1.0" encoding="UTF-8" standalone="no"?>
<!DOCTYPE svg PUBLIC "-//W3C//DTD SVG 1.1//EN" "http://www.w3.org/Graphics/SVG/1.1/DTD/svg11.dtd">
<svg width="100%" height="100%" viewBox="0 0 500 500" version="1.1" xmlns="http://www.w3.org/2000/svg" xmlns:xlink="http://www.w3.org/1999/xlink" xml:space="preserve" xmlns:serif="http://www.serif.com/" style="fill-rule:evenodd;clip-rule:evenodd;stroke-linecap:round;stroke-linejoin:round;stroke-miterlimit:1.5;">
    <rect id="Mesa-de-trabajo1" serif:id="Mesa de trabajo1" x="0" y="0" width="500" height="500" style="fill:none;"/>
    <g id="Mesa-de-trabajo11" serif:id="Mesa de trabajo1">
        <g id="Logo">
            <path d="M240.541,253.671C254.554,235.323 278.828,230.277 294.714,242.41C310.6,254.542 312.121,279.289 298.109,297.636C284.096,315.984 259.822,321.03 243.936,308.898C228.05,296.765 226.529,272.019 240.541,253.671ZM268.59,254.479C280.196,254.479 289.619,263.901 289.619,275.507C289.619,287.113 280.196,296.535 268.59,296.535C256.985,296.535 247.562,287.113 247.562,275.507C247.562,263.901 256.985,254.479 268.59,254.479Z"/>
            <g transform="matrix(1,0,0,1,246.124,19.5946)">
                <circle cx="22.466" cy="255.912" r="72.804" style="fill:none;stroke:black;stroke-width:8.4px;"/>
            </g>
            <g transform="matrix(0.596288,0,0,0.596288,255.194,122.909)">
                <circle cx="22.466" cy="255.912" r="72.804" style="fill:none;stroke:black;stroke-width:7.04px;"/>
            </g>
            <g transform="matrix(1,0,0,1.07481,10.1351,-26.0582)">
                <path d="M202.703,212.838L109.797,212.838C104.959,212.838 100.319,214.626 96.897,217.809C93.476,220.992 91.554,225.31 91.554,229.811L91.554,327.723C91.554,339.093 101.461,348.311 113.682,348.311C149.831,348.311 217.568,348.311 217.568,348.311" style="fill:none;stroke:black;stroke-width:8px;"/>
            </g>
            <g transform="matrix(1,0,0,0.950495,-10.473,17.2431)">
                <path d="M321.202,348.311C321.202,348.311 353.746,348.311 367.726,348.311C371.184,348.311 373.986,345.362 373.986,341.725C373.986,341.054 373.986,340.382 373.986,339.739C373.986,337.196 375.946,335.135 378.362,335.135C378.363,335.135 378.364,335.135 378.364,335.135C385.649,335.135 391.554,328.922 391.554,321.258C391.554,295.768 391.554,241.006 391.554,207.168C391.554,191.268 379.302,178.378 364.189,178.378L327.232,178.378C324.281,178.378 321.442,177.185 319.303,175.046C313.485,169.228 301.6,157.344 296.423,152.166C294.815,150.559 292.682,149.662 290.464,149.662C281.501,149.662 257.356,149.662 245.27,149.662C243.389,149.662 241.584,150.449 240.254,151.848C238.923,153.248 238.176,155.147 238.176,157.126C238.176,167.001 238.176,183.171 238.176,183.171" style="fill:none;stroke:black;stroke-width:8.61px;"/>
            </g>
            <g transform="matrix(1,0,0,1,0.674218,17.8812)">
                <path d="M236.216,122.666C235.868,121.938 235.917,121.081 236.346,120.397C236.774,119.712 237.523,119.294 238.33,119.289C246.88,119.23 268.054,119.084 278.97,119.009C280.342,118.999 281.612,119.73 282.293,120.921C282.975,122.112 282.961,123.577 282.257,124.755C281.383,126.219 280.472,127.743 279.696,129.043C278.442,131.142 276.183,132.434 273.738,132.452C272.077,132.463 270.2,132.477 268.765,132.487C267.298,132.497 265.925,133.208 265.069,134.399C263.633,136.398 261.576,139.261 261.576,139.261L254.874,139.439C254.874,139.439 252.822,136.488 251.38,134.417C250.516,133.174 249.097,132.432 247.583,132.432C246.863,132.432 246.052,132.432 245.248,132.432C242.578,132.432 240.146,130.898 238.996,128.489C238.11,126.633 237.064,124.442 236.216,122.666Z" style="fill:none;stroke:black;stroke-width:8.4px;"/>
            </g>
        </g>
    </g>
</svg>
